<svg width="128" height="40" viewBox="0 0 128 40" fill="none" xmlns="http://www.w3.org/2000/svg">
<path d="M125.179 0.827587C123.802 0.386207 121.167 0 118.411 0C108.469 0 96.6696 6.78621 88.7036 17.5448C84.6307 23.0621 83.6125 25.7655 83.6125 25.7655C83.6125 25.7655 83.8521 20.9104 83.1333 17.8207C82.7141 15.8345 81.9354 15.2828 80.7974 15.0069C79.1204 14.6207 77.5032 15.4483 76.5449 16.4414C77.623 17.3793 78.5214 19.2 78.761 21.1862C79.0605 23.7242 79.1204 26.0966 79.1803 30.7311C79.1803 31.5035 79.0006 31.8345 79.6594 31.8345H83.3729C84.1516 31.8345 84.6307 31.5587 84.8703 31.1173C86.3078 27.9173 90.3806 20.1931 95.292 15.4483C103.557 7.50346 110.625 4.80001 118.172 4.80001C121.765 4.80001 124.161 5.24139 125.778 6.17932C127.276 5.73794 129.013 2.09655 125.179 0.827587Z" fill="#FEC600"/>
<path fill-rule="evenodd" clip-rule="evenodd" d="M23.5388 10.3173V29.9035C23.5388 31.0621 22.5206 32 21.2628 32C20.0649 32 18.9868 31.0621 18.9868 29.9035V10.3173C18.9868 9.21381 20.005 8.2207 21.2628 8.2207C22.5206 8.2207 23.5388 9.15864 23.5388 10.3173ZM104.157 22.4552H96.6101C97.0293 20.7448 98.347 19.6414 100.383 19.6414C102.36 19.6414 103.797 20.8552 104.157 22.4552ZM108.649 24.0552C108.649 19.4207 105.115 16.1103 100.383 16.1103C95.6517 16.1103 91.8784 19.6965 91.8784 24.0552C91.8784 28.4138 95.7116 32 100.443 32C102.779 32 105.295 31.3379 107.211 29.7379C107.75 29.2966 107.99 28.0828 107.211 27.3104C106.433 26.5931 105.235 26.6483 104.396 27.2552C103.378 27.9172 102.24 28.469 100.623 28.469C98.4069 28.469 96.7897 27.2 96.5502 25.4345H107.032C107.87 25.4345 108.649 24.8828 108.649 24.0552ZM122.724 24.0551C122.724 26.3723 121.107 28.2482 118.532 28.2482C115.956 28.2482 114.639 26.3723 114.639 24.0551C114.639 21.7378 116.136 19.862 118.711 19.862C121.287 19.862 122.724 21.7378 122.724 24.0551ZM127.276 29.9585V23.8896C127.276 19.5309 123.862 16.1654 118.652 16.1654C113.92 16.1654 110.027 19.7516 110.027 24.1103C110.027 28.6896 113.201 32.0551 118.053 32.0551C120.209 32.0551 122.305 30.7861 122.784 29.793C122.784 31.1723 123.802 32.0551 125 32.0551C126.258 32.0551 127.216 31.0068 127.216 29.8482L127.276 29.9585ZM37.9736 24.0551C37.9736 26.3723 36.3564 28.2482 33.7809 28.2482C31.2055 28.2482 29.8878 26.3723 29.8878 24.0551C29.8878 21.7378 31.3252 19.862 33.9606 19.862C36.4762 19.862 37.9736 21.7378 37.9736 24.0551ZM42.5256 29.793V23.8896C42.5256 19.5309 39.0517 16.1654 33.9007 16.1654C29.169 16.1654 25.2759 19.7516 25.2759 24.1103C25.3358 28.6896 28.5102 31.9999 33.3617 31.9999C35.5179 31.9999 37.6142 30.731 38.0934 29.7379C38.0934 31.1172 39.1116 31.9999 40.3095 31.9999C41.5673 31.9999 42.5256 30.9516 42.5256 29.793ZM57.0795 28.3033C58.0977 28.3033 58.9362 29.0757 58.9362 30.0137C58.9362 30.9516 58.0378 31.724 57.0795 31.724H49.413C49.0536 31.724 48.6942 31.7301 48.3349 31.7363C47.6161 31.7485 46.8974 31.7608 46.1786 31.724C45.2802 31.724 44.3219 30.8964 44.3219 30.0137C44.3219 29.5171 44.4417 29.0757 44.8011 28.6895L52.6473 19.8619H46.1786C45.2203 19.8619 44.3219 19.0895 44.3219 18.1516C44.3219 17.2136 45.1604 16.4412 46.1786 16.4412H56.8399C57.9779 16.4412 58.8164 17.2688 58.8164 18.2619C58.8164 18.7033 58.6367 19.1447 58.3373 19.4757L50.4911 28.3033H57.0795ZM72.1734 24.0551C72.1734 26.3723 70.5563 28.2482 67.9808 28.2482C65.4053 28.2482 64.0876 26.3723 64.0876 24.0551C64.0876 21.7378 65.5251 19.862 68.1605 19.862C70.7359 19.862 72.1734 21.7378 72.1734 24.0551ZM76.7254 29.9585V23.8896C76.7254 19.5309 73.3114 16.1654 68.1006 16.1654C63.3689 16.1654 59.4757 19.7516 59.4757 24.1103C59.4757 28.6896 62.6501 32.0551 67.5016 32.0551C69.6578 32.0551 71.7542 30.7861 72.2333 29.793C72.2333 31.1723 73.2515 32.0551 74.4494 32.0551C75.7072 32.0551 76.6655 31.0068 76.6655 29.8482L76.7254 29.9585ZM8.56495 28.2483C11.2003 28.2483 12.6378 26.3724 12.6378 24.0552C12.6378 21.7379 11.2003 19.8621 8.56495 19.8621C5.92958 19.8621 4.49211 21.7379 4.49211 24.0552C4.49211 26.3724 5.98948 28.2483 8.56495 28.2483ZM9.04411 16.1103C13.656 16.1103 17.1898 19.6965 17.1898 24.0552C17.1898 28.4138 13.656 32 9.04411 32C6.94779 32 5.09106 30.8414 4.552 29.8483V37.9035C4.552 39.0621 3.53379 40 2.276 40C1.01821 40 0 39.0621 0 37.9035V18.2621C0 17.1034 1.01821 16.1103 2.21611 16.1103C3.23432 16.1103 4.37232 16.9931 4.37232 18.3724C5.21085 17.1586 6.94779 16.1103 9.04411 16.1103Z" fill="white"/>
</svg>
